<?xml version="1.0" encoding="UTF-8" standalone="no"?>
<!-- Created with Inkscape (http://www.inkscape.org/) -->

<svg
   xmlns:dc="http://purl.org/dc/elements/1.1/"
   xmlns:cc="http://creativecommons.org/ns#"
   xmlns:rdf="http://www.w3.org/1999/02/22-rdf-syntax-ns#"
   xmlns:svg="http://www.w3.org/2000/svg"
   xmlns="http://www.w3.org/2000/svg"
   xmlns:sodipodi="http://sodipodi.sourceforge.net/DTD/sodipodi-0.dtd"
   xmlns:inkscape="http://www.inkscape.org/namespaces/inkscape"
   width="48.599552mm"
   height="13.291603mm"
   viewBox="0 0 48.599552 13.291603"
   version="1.1"
   id="svg8"
   inkscape:version="0.92.5 (2060ec1f9f, 2020-04-08)"
   sodipodi:docname="logo.svg">
  <defs
     id="defs2" />
  <sodipodi:namedview
     id="base"
     pagecolor="#ffffff"
     bordercolor="#666666"
     borderopacity="1.0"
     inkscape:pageopacity="0.0"
     inkscape:pageshadow="2"
     inkscape:zoom="3.88168"
     inkscape:cx="84.660496"
     inkscape:cy="32.442731"
     inkscape:document-units="mm"
     inkscape:current-layer="text830"
     showgrid="false"
     inkscape:window-width="1366"
     inkscape:window-height="698"
     inkscape:window-x="0"
     inkscape:window-y="34"
     inkscape:window-maximized="1" />
  <metadata
     id="metadata5">
    <rdf:RDF>
      <cc:Work
         rdf:about="">
        <dc:format>image/svg+xml</dc:format>
        <dc:type
           rdf:resource="http://purl.org/dc/dcmitype/StillImage" />
        <dc:title></dc:title>
      </cc:Work>
    </rdf:RDF>
  </metadata>
  <g
     inkscape:label="Tavolo 1"
     inkscape:groupmode="layer"
     id="layer1"
     transform="translate(-25.667742,-78.652046)">
    <text
       xml:space="preserve"
       style="font-style:normal;font-variant:normal;font-weight:normal;font-stretch:normal;font-size:10.58333302px;line-height:1.25;font-family:Keraleeyam;-inkscape-font-specification:Keraleeyam;letter-spacing:0px;word-spacing:0px;fill:#000000;fill-opacity:1;stroke:none;stroke-width:0.26458332"
       x="33.261906"
       y="111.79166"
       id="text817"><tspan
         sodipodi:role="line"
         id="tspan815"
         x="33.261906"
         y="119.85318"
         style="font-style:normal;font-variant:normal;font-weight:normal;font-stretch:normal;font-family:Keraleeyam;-inkscape-font-specification:Keraleeyam;stroke-width:0.26458332" /></text>
    <g
       aria-label="Ludema Studio"
       style="font-style:normal;font-variant:normal;font-weight:normal;font-stretch:normal;font-size:10.58333302px;line-height:1.25;font-family:Keraleeyam;-inkscape-font-specification:Keraleeyam;letter-spacing:0px;word-spacing:0px;fill:#000000;fill-opacity:1;stroke:none;stroke-width:0.26458332"
       id="text829">
      <path
         d="m 51.421923,89.310695 q 0.77003,0.602631 2.335198,0.602631 2.125953,0 2.125953,-1.52332 0,-0.686331 -0.611002,-1.104825 -0.393386,-0.267837 -1.397772,-0.644482 -1.004387,-0.376643 -1.389402,-0.627741 -1.205263,-0.7784 -1.196894,-2.603035 0,-1.330812 0.970908,-2.100842 0.970907,-0.770029 2.569556,-0.770029 1.079714,0 1.581908,0.175767 0.510563,0.167398 0.828619,0.343166 v 1.774416 q -0.75329,-0.652851 -2.167801,-0.652851 -2.000404,0 -2.000404,1.247114 0,0.786768 0.88721,1.163413 0.251096,0.10881 0.828617,0.334796 1.565171,0.619371 2.268241,1.322442 0.703071,0.694701 0.703071,2.159431 0,1.45636 -0.970908,2.360309 -0.962537,0.903947 -2.795543,0.903947 -1.280592,0 -1.757676,-0.159035 -0.477083,-0.159036 -0.811879,-0.334796 z"
         style="font-style:normal;font-variant:normal;font-weight:normal;font-stretch:normal;font-family:Keraleeyam;-inkscape-font-specification:Keraleeyam;fill:#ffffff;fill-opacity:1;stroke-width:0.42853823"
         id="path843"
         inkscape:connector-curvature="0" />
      <path
         d="m 58.989906,86.880478 q 0.206705,0 0.403076,-0.06201 v 0.940511 q -0.294556,0.06201 -0.63562,0.06201 -0.728638,0 -1.18339,-0.470256 -0.454753,-0.475423 -0.454753,-1.322916 v -2.098063 h -0.780314 v -0.894003 h 0.780314 v -1.953369 h 0.956014 v 1.953369 h 1.105876 v 0.894003 h -1.105876 v 2.067057 q 0,0.883667 0.914673,0.883667 z"
         style="font-style:normal;font-variant:normal;font-weight:normal;font-stretch:normal;font-family:Keraleeyam;-inkscape-font-specification:Keraleeyam;fill:#ffffff;fill-opacity:1;stroke-width:0.26458332"
         id="path845"
         inkscape:connector-curvature="0" />
      <path
         d="m 61.558224,86.916651 q 0.919841,0 0.919841,-1.111043 v -2.790527 h 0.981852 v 4.702555 H 62.4884 v -0.74414 q -0.253214,0.847493 -1.37976,0.847493 -1.126547,0 -1.364258,-1.064535 -0.08268,-0.351399 -0.07752,-0.83199 v -2.909383 h 0.981852 v 2.790527 q 0,0.568441 0.217041,0.842326 0.217041,0.268717 0.692464,0.268717 z"
         style="font-style:normal;font-variant:normal;font-weight:normal;font-stretch:normal;font-family:Keraleeyam;-inkscape-font-specification:Keraleeyam;fill:#ffffff;fill-opacity:1;stroke-width:0.26458332"
         id="path847"
         inkscape:connector-curvature="0" />
      <path
         d="m 65.656164,82.911728 q 0.909505,0 1.219564,0.661458 v -2.547648 h 0.981852 v 6.728272 h -0.914673 l -0.04651,-0.542603 q -0.397909,0.651123 -1.271241,0.651123 -0.868164,0 -1.364257,-0.661458 -0.490926,-0.661459 -0.490926,-1.881022 -0.0052,-1.803508 1.111043,-2.263428 0.3514,-0.144694 0.775146,-0.144694 z m 1.219564,3.400309 v -1.328084 q 0,-0.816488 -0.589111,-1.018026 -0.1757,-0.06201 -0.392741,-0.06201 -0.589111,0 -0.837158,0.361735 -0.248047,0.351399 -0.248047,0.899169 0,0.547771 0.08268,0.826823 0.242879,0.780314 1.059367,0.785482 0.273885,0 0.532267,-0.113688 0.258382,-0.113688 0.392741,-0.3514 z"
         style="font-style:normal;font-variant:normal;font-weight:normal;font-stretch:normal;font-family:Keraleeyam;-inkscape-font-specification:Keraleeyam;fill:#ffffff;fill-opacity:1;stroke-width:0.26458332"
         id="path849"
         inkscape:connector-curvature="0" />
      <path
         d="m 69.159826,82.415634 h -0.987019 v -1.00769 h 0.987019 z m 0,5.302002 h -0.987019 v -4.681885 h 0.987019 z"
         style="font-style:normal;font-variant:normal;font-weight:normal;font-stretch:normal;font-family:Keraleeyam;-inkscape-font-specification:Keraleeyam;fill:#ffffff;fill-opacity:1;stroke-width:0.26458332"
         id="path851"
         inkscape:connector-curvature="0" />
      <path
         d="m 73.417966,85.356023 q 0,1.111043 -0.501262,1.782837 -0.496093,0.666626 -1.472778,0.666626 -0.976685,0 -1.483114,-0.666626 -0.506429,-0.666626 -0.506429,-1.782837 0,-1.73116 1.111044,-2.268595 0.366902,-0.1757 0.873331,-0.1757 0.971517,0 1.472779,0.666626 0.506429,0.661458 0.506429,1.777669 z m -1.968872,1.53479 q 0.521932,0 0.749308,-0.387573 0.232544,-0.392741 0.232544,-0.971517 0,-0.578776 -0.05684,-0.857829 -0.05684,-0.28422 -0.1757,-0.465088 -0.227376,-0.346232 -0.749308,-0.346232 -0.521932,0 -0.754476,0.3514 -0.232544,0.346232 -0.232544,1.121379 0,0.775146 0.232544,1.167887 0.237711,0.387573 0.754476,0.387573 z"
         style="font-style:normal;font-variant:normal;font-weight:normal;font-stretch:normal;font-family:Keraleeyam;-inkscape-font-specification:Keraleeyam;fill:#ffffff;fill-opacity:1;stroke-width:0.26458332"
         id="path853"
         inkscape:connector-curvature="0" />
      <g
         aria-label="Carma"
         style="font-style:normal;font-weight:normal;font-size:10.58333302px;line-height:1.25;font-family:sans-serif;letter-spacing:0px;word-spacing:0px;fill:#000000;fill-opacity:1;stroke:none;stroke-width:0.07000434"
         id="text830">
        <path
           d="m 28.796622,89.280449 q 0.364197,0.437036 0.898354,0.623182 0.534155,0.186145 1.35967,0.186145 0.825513,0 1.562002,-0.234705 v 1.562001 q -0.930727,0.299452 -1.942386,0.299452 -2.031412,0 -3.107817,-1.424416 -1.076406,-1.424416 -1.076406,-3.998078 0.0081,-3.965704 2.403702,-4.99355 0.776955,-0.331824 1.8048,-0.331824 1.027846,0 1.804801,0.299451 v 1.545816 q -0.728395,-0.218519 -1.52963,-0.218519 -0.79314,0 -1.31111,0.169959 -0.509875,0.169958 -0.86598,0.590809 -0.34801,0.42085 -0.534156,1.141151 -0.178052,0.712209 -0.178052,1.796707 0,1.084498 0.178052,1.812893 0.178052,0.728395 0.534156,1.173526 z"
           style="font-style:normal;font-variant:normal;font-weight:normal;font-stretch:normal;font-family:Keraleeyam;-inkscape-font-specification:Keraleeyam;stroke-width:0.10963688;fill:#ffffff;fill-opacity:1"
           id="path832"
           inkscape:connector-curvature="0" />
        <path
           d="m 32.473239,81.844884 q 0.625285,-0.227377 1.204061,-0.227377 1.09554,0 1.612304,0.43925 0.521932,0.434082 0.521932,1.452108 v 2.930053 h -0.98702 l -0.02067,-0.413411 q -0.315226,0.480591 -1.111043,0.480591 -1.080038,0 -1.431438,-0.785482 -0.134358,-0.289388 -0.134358,-0.754476 0,-1.529622 2.061889,-1.524455 0.361735,0 0.61495,0.03617 v -0.1757 q 0,-0.775146 -1.131714,-0.775146 -0.45992,0 -1.198893,0.289388 z m 1.875854,2.34611 q -1.260905,0 -1.260905,0.775146 0,0.516764 0.465088,0.599447 0.160197,0.03101 0.377238,0.02584 0.666626,0 0.873332,-0.418579 v -0.950846 q -0.196371,-0.03101 -0.454753,-0.03101 z"
           style="font-style:normal;font-variant:normal;font-weight:normal;font-stretch:normal;font-family:Keraleeyam;-inkscape-font-specification:Keraleeyam;fill:#ffffff;fill-opacity:1;stroke-width:0.07000434"
           id="path834"
           inkscape:connector-curvature="0" />
        <path
           d="m 38.12664,81.627843 q 0.186035,-0.04134 0.320394,-0.04134 0.134359,0 0.273885,0.02584 v 1.012858 q -0.155029,-0.04134 -0.382405,-0.04134 -0.490927,0 -0.831991,0.289388 -0.341064,0.28422 -0.341064,0.800984 v 2.718181 h -1.028361 v -4.681885 h 0.997355 l 0.04134,0.63562 q 0.26355,-0.578776 0.950846,-0.718302 z"
           style="font-style:normal;font-variant:normal;font-weight:normal;font-stretch:normal;font-family:Keraleeyam;-inkscape-font-specification:Keraleeyam;fill:#ffffff;fill-opacity:1;stroke-width:0.07000434"
           id="path836"
           inkscape:connector-curvature="0" />
        <path
           d="m 43.852389,81.591669 q 1.384928,0 1.384928,1.917196 v 2.89388 h -0.961181 v -2.811198 q 0,-0.542602 -0.180868,-0.826823 -0.180867,-0.289388 -0.594279,-0.289388 -0.413411,0 -0.609782,0.180868 -0.28422,0.258382 -0.28422,0.935343 v 2.811198 h -0.966349 v -2.811198 q 0,-0.578776 -0.180868,-0.847493 -0.180867,-0.268718 -0.599446,-0.268718 -0.423747,0 -0.651123,0.237712 -0.227377,0.232544 -0.227377,0.878499 v 2.811198 H 39.015475 V 81.70019 h 0.904338 l 0.04134,0.775146 q 0.118856,-0.408244 0.465088,-0.645955 0.351399,-0.237712 0.800984,-0.237712 0.971517,0 1.266073,0.961182 0.330729,-0.961182 1.359091,-0.961182 z"
           style="font-style:normal;font-variant:normal;font-weight:normal;font-stretch:normal;font-family:Keraleeyam;-inkscape-font-specification:Keraleeyam;fill:#ffffff;fill-opacity:1;stroke-width:0.07000434"
           id="path838"
           inkscape:connector-curvature="0" />
        <path
           d="m 45.857435,81.844884 q 0.625285,-0.227377 1.204061,-0.227377 1.09554,0 1.612305,0.43925 0.521932,0.434082 0.521932,1.452108 v 2.930053 h -0.98702 l -0.02067,-0.413411 q -0.315226,0.480591 -1.111043,0.480591 -1.080037,0 -1.431437,-0.785482 -0.134359,-0.289388 -0.134359,-0.754476 0,-1.529622 2.06189,-1.524455 0.361735,0 0.614949,0.03617 v -0.1757 q 0,-0.775146 -1.131714,-0.775146 -0.45992,0 -1.198893,0.289388 z m 1.875855,2.34611 q -1.260905,0 -1.260905,0.775146 0,0.516764 0.465088,0.599447 0.160196,0.03101 0.377237,0.02584 0.666626,0 0.873332,-0.418579 v -0.950846 q -0.19637,-0.03101 -0.454752,-0.03101 z"
           style="font-style:normal;font-variant:normal;font-weight:normal;font-stretch:normal;font-family:Keraleeyam;-inkscape-font-specification:Keraleeyam;fill:#ffffff;fill-opacity:1;stroke-width:0.07000434"
           id="path840"
           inkscape:connector-curvature="0" />
      </g>
      <path
         style="color:#000000;font-style:normal;font-variant:normal;font-weight:normal;font-stretch:normal;font-size:medium;line-height:1.25;font-family:Keraleeyam;-inkscape-font-specification:Keraleeyam;font-variant-ligatures:normal;font-variant-position:normal;font-variant-caps:normal;font-variant-numeric:normal;font-variant-alternates:normal;font-feature-settings:normal;text-indent:0;text-align:start;text-decoration:none;text-decoration-line:none;text-decoration-style:solid;text-decoration-color:#000000;letter-spacing:0px;word-spacing:0px;text-transform:none;writing-mode:lr-tb;direction:ltr;text-orientation:mixed;dominant-baseline:auto;baseline-shift:baseline;text-anchor:start;white-space:normal;shape-padding:0;clip-rule:nonzero;display:inline;overflow:visible;visibility:visible;opacity:1;isolation:auto;mix-blend-mode:normal;color-interpolation:sRGB;color-interpolation-filters:linearRGB;solid-color:#000000;solid-opacity:1;vector-effect:none;fill:#ffffff;fill-opacity:1;fill-rule:nonzero;stroke:none;stroke-width:0.8547551;stroke-linecap:butt;stroke-linejoin:miter;stroke-miterlimit:4;stroke-dasharray:none;stroke-dashoffset:0;stroke-opacity:1;color-rendering:auto;image-rendering:auto;shape-rendering:auto;text-rendering:auto;enable-background:accumulate"
         d="m 30.151441,78.727566 -0.302201,0.302202 -1.703425,1.703425 4.010072,-0.0012 z m 0,1.208807 0.795641,0.795639 -1.59246,0.0012 z"
         id="rect941"
         inkscape:connector-curvature="0"
         sodipodi:nodetypes="ccccccccc" />
    </g>
  </g>
</svg>
